<?xml version="1.0" encoding="UTF-8"?>
<!DOCTYPE svg PUBLIC "-//W3C//DTD SVG 1.1//EN" "http://www.w3.org/Graphics/SVG/1.1/DTD/svg11.dtd">
<!-- Creator: CorelDRAW 2020 (64-Bit) -->
<svg xmlns="http://www.w3.org/2000/svg" xml:space="preserve" width="6.34998cm" height="6.34998cm" version="1.1" style="shape-rendering:geometricPrecision; text-rendering:geometricPrecision; image-rendering:optimizeQuality; fill-rule:evenodd; clip-rule:evenodd"
viewBox="0 0 6349.98 6349.98"
 xmlns:xlink="http://www.w3.org/1999/xlink"
 xmlns:xodm="http://www.corel.com/coreldraw/odm/2003">
 <defs>
  <style type="text/css">
   <![CDATA[
    .str0 {stroke:#141414;stroke-width:50.8;stroke-linecap:round;stroke-miterlimit:2.61313}
    .fil1 {fill:none}
    .fil0 {fill:black}
   ]]>
  </style>
 </defs>
 <rect class="fil0" x="-0.01" y="-0.01" width="6349.99" height="6349.99"/>
 <g id="Layer_x0020_1">
  <metadata id="CorelCorpID_0Corel-Layer"/>
  <path class="fil1 str0" d="M634.99 5079.99c-350.7,0 -635,284.3 -635,635"/>
  <path class="fil1 str0" d="M634.99 6349.99c-350.7,0 -635,-284.3 -635,-635"/>
  <line class="fil1 str0" x1="634.99" y1="5079.99" x2="634.99" y2= "5714.99" />
  <line class="fil1 str0" x1="634.99" y1="5714.99" x2="634.99" y2= "6349.99" />
  <path class="fil1 str0" d="M634.99 3809.99c350.7,0 635,284.3 635,635"/>
  <path class="fil1 str0" d="M634.99 5079.99c350.7,0 635,-284.3 635,-635"/>
  <line class="fil1 str0" x1="634.99" y1="3809.99" x2="634.99" y2= "4444.99" />
  <line class="fil1 str0" x1="634.99" y1="4444.99" x2="634.99" y2= "5079.99" />
  <path class="fil1 str0" d="M634.99 2539.99c350.7,0 635,284.3 635,635"/>
  <path class="fil1 str0" d="M634.99 2539.99c-350.7,0 -635,284.3 -635,635"/>
  <path class="fil1 str0" d="M634.99 3809.99c350.7,0 635,-284.3 635,-635"/>
  <path class="fil1 str0" d="M634.99 3809.99c-350.7,0 -635,-284.3 -635,-635"/>
  <path class="fil1 str0" d="M634.99 1269.99c350.7,0 635,284.3 635,635"/>
  <path class="fil1 str0" d="M634.99 1269.99c-350.7,0 -635,284.3 -635,635"/>
  <line class="fil1 str0" x1="-0.01" y1="1904.99" x2="634.99" y2= "1904.99" />
  <line class="fil1 str0" x1="634.99" y1="1904.99" x2="1269.99" y2= "1904.99" />
  <path class="fil1 str0" d="M634.99 1269.99c350.7,0 635,-284.3 635,-635"/>
  <path class="fil1 str0" d="M634.99 1269.99c-350.7,0 -635,-284.3 -635,-635"/>
  <line class="fil1 str0" x1="-0.01" y1="634.99" x2="634.99" y2= "634.99" />
  <line class="fil1 str0" x1="634.99" y1="634.99" x2="1269.99" y2= "634.99" />
  <path class="fil1 str0" d="M1904.99 6349.99c-350.7,0 -635,-284.3 -635,-635"/>
  <line class="fil1 str0" x1="1904.99" y1="5714.99" x2="1904.99" y2= "6349.99" />
  <line class="fil1 str0" x1="1269.99" y1="5714.99" x2="1904.99" y2= "5714.99" />
  <path class="fil1 str0" d="M1904.99 3809.99c350.7,0 635,284.3 635,635"/>
  <path class="fil1 str0" d="M1904.99 5079.99c350.7,0 635,-284.3 635,-635"/>
  <path class="fil1 str0" d="M1904.99 5079.99c-350.7,0 -635,-284.3 -635,-635"/>
  <line class="fil1 str0" x1="1904.99" y1="3809.99" x2="1904.99" y2= "4444.99" />
  <line class="fil1 str0" x1="1269.99" y1="4444.99" x2="1904.99" y2= "4444.99" />
  <path class="fil1 str0" d="M1904.99 3809.99c350.7,0 635,-284.3 635,-635"/>
  <line class="fil1 str0" x1="1904.99" y1="3174.99" x2="1904.99" y2= "3809.99" />
  <line class="fil1 str0" x1="1904.99" y1="3174.99" x2="2539.99" y2= "3174.99" />
  <path class="fil1 str0" d="M1904.99 1269.99c350.7,0 635,284.3 635,635"/>
  <path class="fil1 str0" d="M1904.99 1269.99c-350.7,0 -635,284.3 -635,635"/>
  <path class="fil1 str0" d="M1904.99 2539.99c350.7,0 635,-284.3 635,-635"/>
  <path class="fil1 str0" d="M1904.99 2539.99c-350.7,0 -635,-284.3 -635,-635"/>
  <path class="fil1 str0" d="M1904.99 -0.01c-350.7,0 -635,284.3 -635,635"/>
  <path class="fil1 str0" d="M1904.99 1269.99c-350.7,0 -635,-284.3 -635,-635"/>
  <line class="fil1 str0" x1="1904.99" y1="-0.01" x2="1904.99" y2= "634.99" />
  <line class="fil1 str0" x1="1904.99" y1="634.99" x2="1904.99" y2= "1269.99" />
  <path class="fil1 str0" d="M3174.99 6349.99c350.7,0 635,-284.3 635,-635"/>
  <path class="fil1 str0" d="M3174.99 6349.99c-350.7,0 -635,-284.3 -635,-635"/>
  <line class="fil1 str0" x1="2539.99" y1="5714.99" x2="3174.99" y2= "5714.99" />
  <line class="fil1 str0" x1="3174.99" y1="5714.99" x2="3809.99" y2= "5714.99" />
  <path class="fil1 str0" d="M3174.99 5079.99c350.7,0 635,-284.3 635,-635"/>
  <line class="fil1 str0" x1="3174.99" y1="4444.99" x2="3174.99" y2= "5079.99" />
  <line class="fil1 str0" x1="3174.99" y1="4444.99" x2="3809.99" y2= "4444.99" />
  <path class="fil1 str0" d="M3174.99 3809.99c350.7,0 635,-284.3 635,-635"/>
  <path class="fil1 str0" d="M3174.99 3809.99c-350.7,0 -635,-284.3 -635,-635"/>
  <line class="fil1 str0" x1="2539.99" y1="3174.99" x2="3174.99" y2= "3174.99" />
  <line class="fil1 str0" x1="3174.99" y1="3174.99" x2="3809.99" y2= "3174.99" />
  <path class="fil1 str0" d="M3174.99 1269.99c350.7,0 635,284.3 635,635"/>
  <path class="fil1 str0" d="M3174.99 1269.99c-350.7,0 -635,284.3 -635,635"/>
  <line class="fil1 str0" x1="2539.99" y1="1904.99" x2="3174.99" y2= "1904.99" />
  <line class="fil1 str0" x1="3174.99" y1="1904.99" x2="3809.99" y2= "1904.99" />
  <path class="fil1 str0" d="M3174.99 1269.99c350.7,0 635,-284.3 635,-635"/>
  <line class="fil1 str0" x1="3174.99" y1="634.99" x2="3174.99" y2= "1269.99" />
  <line class="fil1 str0" x1="3174.99" y1="634.99" x2="3809.99" y2= "634.99" />
  <path class="fil1 str0" d="M4444.99 5079.99c350.7,0 635,284.3 635,635"/>
  <path class="fil1 str0" d="M4444.99 5079.99c-350.7,0 -635,284.3 -635,635"/>
  <path class="fil1 str0" d="M4444.99 6349.99c350.7,0 635,-284.3 635,-635"/>
  <path class="fil1 str0" d="M4444.99 6349.99c-350.7,0 -635,-284.3 -635,-635"/>
  <path class="fil1 str0" d="M4444.99 5079.99c350.7,0 635,-284.3 635,-635"/>
  <path class="fil1 str0" d="M4444.99 5079.99c-350.7,0 -635,-284.3 -635,-635"/>
  <line class="fil1 str0" x1="3809.99" y1="4444.99" x2="4444.99" y2= "4444.99" />
  <line class="fil1 str0" x1="4444.99" y1="4444.99" x2="5079.99" y2= "4444.99" />
  <path class="fil1 str0" d="M4444.99 2539.99c350.7,0 635,284.3 635,635"/>
  <path class="fil1 str0" d="M4444.99 2539.99c-350.7,0 -635,284.3 -635,635"/>
  <line class="fil1 str0" x1="3809.99" y1="3174.99" x2="4444.99" y2= "3174.99" />
  <line class="fil1 str0" x1="4444.99" y1="3174.99" x2="5079.99" y2= "3174.99" />
  <path class="fil1 str0" d="M4444.99 1269.99c350.7,0 635,284.3 635,635"/>
  <path class="fil1 str0" d="M4444.99 1269.99c-350.7,0 -635,284.3 -635,635"/>
  <path class="fil1 str0" d="M4444.99 2539.99c350.7,0 635,-284.3 635,-635"/>
  <line class="fil1 str0" x1="4444.99" y1="1904.99" x2="4444.99" y2= "2539.99" />
  <line class="fil1 str0" x1="3809.99" y1="1904.99" x2="4444.99" y2= "1904.99" />
  <path class="fil1 str0" d="M4444.99 -0.01c350.7,0 635,284.3 635,635"/>
  <path class="fil1 str0" d="M4444.99 -0.01c-350.7,0 -635,284.3 -635,635"/>
  <path class="fil1 str0" d="M4444.99 1269.99c350.7,0 635,-284.3 635,-635"/>
  <line class="fil1 str0" x1="4444.99" y1="634.99" x2="4444.99" y2= "1269.99" />
  <line class="fil1 str0" x1="3809.99" y1="634.99" x2="4444.99" y2= "634.99" />
  <path class="fil1 str0" d="M5714.99 5079.99c350.7,0 635,284.3 635,635"/>
  <path class="fil1 str0" d="M5714.99 6349.99c350.7,0 635,-284.3 635,-635"/>
  <line class="fil1 str0" x1="5714.99" y1="5079.99" x2="5714.99" y2= "5714.99" />
  <line class="fil1 str0" x1="5714.99" y1="5714.99" x2="5714.99" y2= "6349.99" />
  <path class="fil1 str0" d="M5714.99 3809.99c350.7,0 635,284.3 635,635"/>
  <line class="fil1 str0" x1="5714.99" y1="3809.99" x2="5714.99" y2= "4444.99" />
  <line class="fil1 str0" x1="5714.99" y1="4444.99" x2="6349.99" y2= "4444.99" />
  <path class="fil1 str0" d="M5714.99 2539.99c350.7,0 635,284.3 635,635"/>
  <path class="fil1 str0" d="M5714.99 2539.99c-350.7,0 -635,284.3 -635,635"/>
  <path class="fil1 str0" d="M5714.99 3809.99c350.7,0 635,-284.3 635,-635"/>
  <path class="fil1 str0" d="M5714.99 3809.99c-350.7,0 -635,-284.3 -635,-635"/>
  <path class="fil1 str0" d="M5714.99 1269.99c350.7,0 635,284.3 635,635"/>
  <path class="fil1 str0" d="M5714.99 2539.99c350.7,0 635,-284.3 635,-635"/>
  <line class="fil1 str0" x1="5714.99" y1="1269.99" x2="5714.99" y2= "1904.99" />
  <line class="fil1 str0" x1="5714.99" y1="1904.99" x2="5714.99" y2= "2539.99" />
  <path class="fil1 str0" d="M5714.99 -0.01c-350.7,0 -635,284.3 -635,635"/>
  <path class="fil1 str0" d="M5714.99 1269.99c-350.7,0 -635,-284.3 -635,-635"/>
  <line class="fil1 str0" x1="5714.99" y1="-0.01" x2="5714.99" y2= "634.99" />
  <line class="fil1 str0" x1="5714.99" y1="634.99" x2="5714.99" y2= "1269.99" />
 </g>
</svg>
